<svg width="1600" height="900" viewBox="0 0 1600 900" fill="none" xmlns="http://www.w3.org/2000/svg" role="img" aria-label="Mapa oficial de Iron Penance">
  <defs>
    <linearGradient id="bg" x1="0" y1="0" x2="0" y2="1">
      <stop offset="0%" stop-color="#101018"/>
      <stop offset="55%" stop-color="#171a24"/>
      <stop offset="100%" stop-color="#1d212f"/>
    </linearGradient>
    <linearGradient id="mist" x1="0" y1="0" x2="1" y2="1">
      <stop offset="0%" stop-color="#6b6f7a" stop-opacity="0.25"/>
      <stop offset="100%" stop-color="#c2b9a3" stop-opacity="0.15"/>
    </linearGradient>
  </defs>
  <rect width="1600" height="900" fill="url(#bg)"/>
  <rect x="36" y="36" width="1528" height="828" rx="18" stroke="#d6c4a1" stroke-width="3" fill="none"/>
  <path d="M180 690 C360 620 520 740 720 690 C920 640 1080 720 1320 650" stroke="#5b6b7d" stroke-width="6" opacity="0.35"/>
  <path d="M220 360 C360 300 520 380 720 340 C920 300 1080 360 1280 320" stroke="#7a6a5c" stroke-width="4" opacity="0.3"/>
  <rect x="120" y="170" width="480" height="220" rx="16" fill="#1c2230" opacity="0.55"/>
  <rect x="1000" y="230" width="460" height="260" rx="16" fill="#2b1f24" opacity="0.5"/>
  <rect x="240" y="520" width="540" height="240" rx="16" fill="#202634" opacity="0.55"/>
  <rect x="980" y="540" width="360" height="220" rx="16" fill="#2e251f" opacity="0.5"/>
  <rect x="0" y="0" width="1600" height="900" fill="url(#mist)"/>
  <text x="800" y="420" fill="#efe7d5" font-family="'Segoe UI', 'DejaVu Sans', sans-serif" font-size="42" text-anchor="middle" letter-spacing="6">MAPA OFICIAL · IRON PENANCE</text>
  <text x="800" y="470" fill="#d1c7b1" font-family="'Segoe UI', 'DejaVu Sans', sans-serif" font-size="22" text-anchor="middle" letter-spacing="2">Mundo contínuo, vertical e horizontal, sem loading.</text>
</svg>
